<svg xmlns="http://www.w3.org/2000/svg" width="54.867" height="64.069" viewBox="0 0 54.867 64.069">
  <g id="Group_10" data-name="Group 10" transform="translate(-8.1 -3.583)">
    <path id="Path_39" data-name="Path 39" d="M57.572,14.851a1.148,1.148,0,0,0-.918-.459H49.193l2.64-4.017a1.148,1.148,0,0,0-.23-1.607,27.319,27.319,0,0,0-32.025,0,1.148,1.148,0,0,0-.23,1.607l2.525,4.017H14.413a1.148,1.148,0,0,0-.918.459A27.089,27.089,0,0,0,8.1,31.036a43.618,43.618,0,0,0,5.28,19.4,1.148,1.148,0,0,0,1.492.459l3.558-1.607-2.64,3.788a1.148,1.148,0,0,0,0,1.263c5.51,8.494,12.626,13.315,19.743,13.315s14.233-4.821,19.743-13.2a1.148,1.148,0,0,0,0-1.263L52.636,49.4l3.558,1.492a1.148,1.148,0,0,0,1.492-.459,43.618,43.618,0,0,0,5.28-19.4,27.089,27.089,0,0,0-5.395-16.185ZM35.533,59.158c-4.821,0-8.609-2.3-8.609-5.165s3.788-5.165,8.609-5.165,8.609,2.3,8.609,5.165S40.354,59.158,35.533,59.158Z" transform="translate(0 0)" fill="#282828"/>
    <circle id="Ellipse_8" data-name="Ellipse 8" cx="7.461" cy="7.461" r="7.461" transform="translate(16.02 20.131)" fill="#fff"/>
    <circle id="Ellipse_9" data-name="Ellipse 9" cx="7.461" cy="7.461" r="7.461" transform="translate(40.125 20.131)" fill="#fff"/>
    <rect id="Rectangle_49" data-name="Rectangle 49" width="3.214" height="2.296" transform="translate(18.67 27.384) rotate(-45)" fill="#282828"/>
    <rect id="Rectangle_50" data-name="Rectangle 50" width="2.296" height="2.296" transform="translate(22.907 28.166)" fill="#282828"/>
    <rect id="Rectangle_51" data-name="Rectangle 51" width="2.296" height="3.248" transform="translate(23.285 25.546) rotate(-45)" fill="#282828"/>
    <rect id="Rectangle_52" data-name="Rectangle 52" width="3.214" height="2.296" transform="translate(42.716 27.327) rotate(-45)" fill="#282828"/>
    <rect id="Rectangle_53" data-name="Rectangle 53" width="2.296" height="2.296" transform="translate(47.012 28.166)" fill="#282828"/>
    <rect id="Rectangle_54" data-name="Rectangle 54" width="2.296" height="3.248" transform="translate(47.333 25.49) rotate(-45)" fill="#282828"/>
  </g>
</svg>
