<svg xmlns="http://www.w3.org/2000/svg" width="37.325" height="64.762" viewBox="0 0 37.325 64.762">
  <g id="Group_9" data-name="Group 9" transform="translate(-13.557)">
    <path id="Path_34" data-name="Path 34" d="M37.324,49.037a10.5,10.5,0,0,0-1.113,3.137L32.062,38.513,27.913,52.174A10.5,10.5,0,0,0,26.8,49.037L30.342,37.4a2.741,2.741,0,0,0,3.44,0Z" transform="translate(0.158 0.445)" fill="#282828"/>
    <path id="Path_35" data-name="Path 35" d="M50.535,53.29a11.118,11.118,0,0,0-3.44-5.869A6.427,6.427,0,0,0,41.428,45.8a6.533,6.533,0,0,0-3.946,3.036,10.5,10.5,0,0,0-1.113,3.137,11.685,11.685,0,0,0,.2,4.554,10.745,10.745,0,0,0,3.44,5.869,6.4,6.4,0,0,0,4.351,1.821,5.77,5.77,0,0,0,1.315-.1,6.239,6.239,0,0,0,4.351-3.946A10.56,10.56,0,0,0,50.535,53.29Zm-2.327,6.071a4.438,4.438,0,0,1-3.036,2.833,4.354,4.354,0,0,1-3.946-1.214,9.4,9.4,0,0,1-2.833-4.756c-.911-3.946.607-7.691,3.44-8.4a2.228,2.228,0,0,1,.81-.1,4.724,4.724,0,0,1,3.137,1.315A9.3,9.3,0,0,1,48.613,53.9,9.1,9.1,0,0,1,48.208,59.361ZM28.071,52.075a10.5,10.5,0,0,0-1.113-3.137A6.264,6.264,0,0,0,23.011,45.9a6.149,6.149,0,0,0-5.667,1.619,11.384,11.384,0,0,0-3.44,5.869,10.26,10.26,0,0,0,.506,6.78,6.239,6.239,0,0,0,4.351,3.946,5.77,5.77,0,0,0,1.315.1,6.777,6.777,0,0,0,4.351-1.72,11.384,11.384,0,0,0,3.44-5.869A11.685,11.685,0,0,0,28.071,52.075Zm-2.125,4.048a8.753,8.753,0,0,1-2.833,4.756,4.646,4.646,0,0,1-3.946,1.214A4.64,4.64,0,0,1,16.13,59.26a8.765,8.765,0,0,1-.607-3.238,9.808,9.808,0,0,1,.3-2.327,9.427,9.427,0,0,1,2.833-4.857A5.045,5.045,0,0,1,21.8,47.522a1.973,1.973,0,0,1,.81.1C25.339,48.433,26.857,52.177,25.946,56.123Z" transform="translate(0 0.544)" fill="#282828"/>
    <path id="Path_36" data-name="Path 36" d="M35.455,33.7l-.911.2a3.016,3.016,0,0,0-2.429-1.214A3.169,3.169,0,0,0,29.687,33.9a3.741,3.741,0,0,0-.506,1.113l-.3-1.315v-.2L22.3,7.589,26.752,0l5.363,20.845,3.238,12.649Z" transform="translate(0.104)" fill="#282828"/>
    <path id="Path_37" data-name="Path 37" d="M41.855,7.589l-6.577,25.8v.2l-.3,1.315a2.246,2.246,0,0,0-.506-1.113,3.016,3.016,0,0,0-2.429-1.214A3.169,3.169,0,0,0,29.611,33.8l-.81-.2h-.1v-.2l3.339-12.548L37.4,0Z" transform="translate(0.18)" fill="#282828"/>
    <path id="Path_38" data-name="Path 38" d="M34.968,35.133a3.2,3.2,0,0,1-1.113,2.327,3.264,3.264,0,0,1-1.821.607,2.748,2.748,0,0,1-1.72-.607A2.879,2.879,0,0,1,29.2,35.133a.758.758,0,0,1,.1-.506,2.246,2.246,0,0,1,.506-1.113A3.016,3.016,0,0,1,32.236,32.3a3.169,3.169,0,0,1,2.429,1.214,3.741,3.741,0,0,1,.506,1.113c-.3.2-.2.3-.2.506Z" transform="translate(0.186 0.385)" fill="#282828"/>
  </g>
</svg>
