<svg xmlns="http://www.w3.org/2000/svg" width="40" height="40" viewBox="0 0 53.54 64.232">
  <g id="Group_8" data-name="Group 8" transform="translate(-19.095 -9.25)">
    <path id="Path_27" data-name="Path 27" d="M45.07,51.393l-8.346,20.46A7.375,7.375,0,0,0,32.9,68.118c-4.53-1.848-10.2,1.55-12.67,7.593S19.442,88.15,23.973,90s10.2-1.55,12.67-7.593L48.692,52.871ZM25.617,85.968C23.085,84.935,22.3,81,23.852,77.19s4.871-6.07,7.4-5.038,3.322,4.963,1.765,8.778-4.871,6.068-7.4,5.035Z" transform="translate(0 -17.021)" fill="#282828"/>
    <path id="Path_28" data-name="Path 28" d="M34.856,81.163,46.727,52.069l-1.657-.676-8.346,20.46a8.2,8.2,0,0,0-1.439-2.091,6.93,6.93,0,0,0-2-1.466c-.126-.06-.25-.125-.382-.179-4.53-1.848-10.2,1.55-12.67,7.593-2.017,4.942-1.261,10.117,1.56,12.852.132.064.259.138.4.194C26.718,90.6,32.391,87.205,34.856,81.163ZM22.067,75.945c3.256-7,9.079-3.838,9.187-3.794,2.532,1.033,3.322,4.963,1.765,8.778s-4.876,6.084-7.4,5.038C21.46,84.243,20.33,79.68,22.067,75.945Z" transform="translate(0 -17.021)" fill="#282828"/>
    <path id="Path_29" data-name="Path 29" d="M87.718,75.709c-2.465-6.042-8.137-9.442-12.669-7.593a7.375,7.375,0,0,0-3.822,3.735l-8.346-20.46L59.26,52.87,71.311,82.4c2.466,6.042,8.138,9.442,12.67,7.593S90.185,81.751,87.718,75.709ZM82.331,85.962C79.8,87,76.486,84.74,74.929,80.925s-.767-7.745,1.765-8.778,5.845,1.223,7.4,5.038.767,7.748-1.764,8.78Z" transform="translate(-16.222 -17.021)" fill="#282828"/>
    <path id="Path_30" data-name="Path 30" d="M88.966,75.709C86.5,69.667,80.829,66.267,76.3,68.117c-.06.024-.114.055-.172.08a6.5,6.5,0,0,0-2.312,1.673,8.247,8.247,0,0,0-1.339,1.982L64.13,51.392l-1.781.727,11.913,29.2c2.466,6.042,8.138,9.442,12.67,7.593.054-.022.1-.052.155-.076C90.163,86.194,91.056,80.83,88.966,75.709ZM83.579,85.962c-2.518,1.065-5.845-1.223-7.4-5.038s-.767-7.745,1.765-8.778c.131-.054,6-2.854,9.109,3.956,1.711,3.751-.221,8.487-3.471,9.862Z" transform="translate(-17.47 -17.021)" fill="#282828"/>
    <rect id="Rectangle_45" data-name="Rectangle 45" width="30.132" height="7.865" transform="translate(30.798 12.52)" fill="#282828"/>
    <rect id="Rectangle_46" data-name="Rectangle 46" width="30.132" height="3.664" transform="translate(30.798 24.373)" fill="#282828"/>
    <path id="Path_31" data-name="Path 31" d="M53.086,38.2a1.037,1.037,0,0,1-.285-.04L37.736,33.9a1.043,1.043,0,0,1-.759-1v-22.6a1.043,1.043,0,0,1,2.086,0V32.1L53.37,36.157a1.043,1.043,0,0,1-.284,2.045Z" transform="translate(-7.222)" fill="#282828"/>
    <path id="Path_32" data-name="Path 32" d="M63.293,38.2a1.043,1.043,0,0,1-.284-2.047L77.316,32.1V10.293a1.043,1.043,0,0,1,2.086,0v22.6a1.043,1.043,0,0,1-.759,1L63.578,38.162a1.037,1.037,0,0,1-.284.04Z" transform="translate(-17.43)" fill="#282828"/>
    <circle id="Ellipse_6" data-name="Ellipse 6" cx="4.029" cy="4.029" r="4.029" transform="translate(41.834 33.129)" fill="#282828"/>
    <path id="Path_33" data-name="Path 33" d="M60.147,49.578a4.026,4.026,0,0,0,0,7.735,4.026,4.026,0,0,0,0-7.735Z" transform="translate(-15.406 -16.288)" fill="#282828"/>
    <circle id="Ellipse_7" data-name="Ellipse 7" cx="1.785" cy="1.785" r="1.785" transform="translate(44.079 35.373)" fill="#282828"/>
    <rect id="Rectangle_47" data-name="Rectangle 47" width="3.59" height="7.865" transform="translate(56.295 12.52)" fill="#282828"/>
    <rect id="Rectangle_48" data-name="Rectangle 48" width="3.59" height="3.664" transform="translate(56.295 24.373)" fill="#282828"/>
  </g>
</svg>
